<svg width="28" height="28" viewBox="0 0 28 28" fill="none" xmlns="http://www.w3.org/2000/svg">
<rect width="28" height="28" fill="#4C4C4C"/>
<g id="&#208;&#152;&#208;&#189;&#209;&#130;&#208;&#181;&#209;&#128;&#208;&#176;&#208;&#186;&#209;&#130;&#208;&#184;&#208;&#178;&#208;&#189;&#209;&#139;&#208;&#185; &#208;&#191;&#209;&#128;&#208;&#190;&#209;&#130;&#208;&#190;&#209;&#130;&#208;&#184;&#208;&#191;" clip-path="url(#clip0_482_146)">
<rect width="1920" height="11650" transform="translate(-160 -40)" fill="#F5F5F5"/>
<g id="&#208;&#147;&#208;&#187;&#208;&#176;&#208;&#178;&#208;&#189;&#209;&#139;&#208;&#185; &#208;&#177;&#208;&#187;&#208;&#190;&#208;&#186; 1920 (&#208;&#178;&#209;&#130;&#208;&#190;&#209;&#128;&#208;&#190;&#208;&#185; &#209;&#133;&#208;&#181;&#208;&#180;&#208;&#181;&#209;&#128;)" clip-path="url(#clip1_482_146)">
<rect width="1920" height="1284" transform="translate(-160 -40)" fill="#222222"/>
</g>
<g id="&#209;&#133;&#208;&#181;&#208;&#180;&#208;&#181;&#209;&#128;/Variant2">
<mask id="path-1-outside-1_482_146" maskUnits="userSpaceOnUse" x="-160" y="-40" width="1920" height="109" fill="black">
<rect fill="white" x="-160" y="-40" width="1920" height="109"/>
<path d="M-160 -40H1760V68H-160V-40Z"/>
</mask>
<path d="M-160 -40H1760V68H-160V-40Z" fill="#222222"/>
<path d="M1760 67.5H-160V68.5H1760V67.5Z" fill="#CBCCCE" mask="url(#path-1-outside-1_482_146)"/>
<g id="&#208;&#187;&#208;&#190;&#208;&#186;&#208;&#176;&#209;&#134;&#208;&#184;&#209;&#143;">
<g id="typcn:location-arrow">
<path id="Vector" d="M13.5822 21.0199C14.0034 22.286 14.8023 22.3306 15.3659 21.1237L21.7731 7.39426C22.3367 6.18486 21.8141 5.66345 20.6061 6.22711L6.87686 12.6338C5.6688 13.1974 5.71466 13.9964 6.97945 14.4189L11.9312 16.0688L13.5822 21.0199Z" fill="white"/>
</g>
</g>
</g>
</g>
<defs>
<clipPath id="clip0_482_146">
<rect width="1920" height="11650" fill="white" transform="translate(-160 -40)"/>
</clipPath>
<clipPath id="clip1_482_146">
<rect width="1920" height="1284" fill="white" transform="translate(-160 -40)"/>
</clipPath>
</defs>
</svg>
